<svg width="448" height="512" viewBox="0 0 448 512" fill="none" xmlns="http://www.w3.org/2000/svg">
<path d="M352 160V128C352 57.42 294.579 0 224 0C153.42 0 96 57.42 96 128V160H0V432C0 476.183 35.817 512 80 512H368C412.183 512 448 476.183 448 432V160H352ZM160 128C160 92.71 188.71 64 224 64C259.29 64 288 92.71 288 128V160H160V128ZM320 248C306.745 248 296 237.255 296 224C296 210.745 306.745 200 320 200C333.255 200 344 210.745 344 224C344 237.255 333.255 248 320 248ZM128 248C114.745 248 104 237.255 104 224C104 210.745 114.745 200 128 200C141.255 200 152 210.745 152 224C152 237.255 141.255 248 128 248Z" fill="#FFD43B"/>
<path d="M282.48 359.076C283.582 356.192 284.2 353.038 284.2 349.75C284.2 335.465 272.644 323.875 258.4 323.875C253.106 323.875 248.161 325.492 244.076 328.241C236.631 315.304 222.737 306.625 206.8 306.625C183.043 306.625 163.8 325.923 163.8 349.75C163.8 350.478 163.827 351.205 163.854 351.933C148.804 357.243 138 371.636 138 388.562C138 409.99 155.334 427.375 176.7 427.375H275.6C294.601 427.375 310 411.931 310 392.875C310 376.191 298.175 362.256 282.48 359.076Z" fill="#1C7ED6"/>
<g clip-path="url(#clip0)">
<path d="M196.445 477.085C211.948 491.808 236.058 491.802 251.555 477.085C252.137 476.532 252.149 475.594 251.585 475.02L248.589 471.968C248.052 471.42 247.188 471.409 246.629 471.934C233.861 483.945 214.141 483.947 201.37 471.934C200.812 471.409 199.947 471.421 199.41 471.968L196.414 475.02C195.851 475.594 195.863 476.532 196.445 477.085ZM224 459.375C227.093 459.375 229.6 456.801 229.6 453.625C229.6 450.449 227.093 447.875 224 447.875C220.907 447.875 218.4 450.449 218.4 453.625C218.4 456.801 220.907 459.375 224 459.375ZM206.266 466.885C216.352 476.043 231.66 476.033 241.734 466.885C242.337 466.337 242.357 465.386 241.784 464.805L238.77 461.751C238.245 461.219 237.4 461.184 236.841 461.679C229.495 468.199 218.488 468.185 211.16 461.679C210.601 461.184 209.756 461.219 209.231 461.751L206.217 464.805C205.643 465.386 205.664 466.338 206.266 466.885Z" fill="#1C7ED6"/>
</g>
<defs>
<clipPath id="clip0">
<rect x="252" y="491" width="56" height="46" transform="rotate(-180 252 491)" fill="white"/>
</clipPath>
</defs>
</svg>
